<?xml version="1.0" standalone="no"?>
<!DOCTYPE svg PUBLIC "-//W3C//DTD SVG 20010904//EN"
 "http://www.w3.org/TR/2001/REC-SVG-20010904/DTD/svg10.dtd">
<svg version="1.0" xmlns="http://www.w3.org/2000/svg"
 width="512.000000pt" height="512.000000pt" viewBox="0 0 512.000000 512.000000"
 preserveAspectRatio="xMidYMid meet">
<metadata>
Created by potrace 1.14, written by Peter Selinger 2001-2017
</metadata>
<g transform="translate(0.000000,512.000000) scale(0.100000,-0.100000)"
fill="#000000" stroke="none">
<path d="M2400 5114 c-542 -47 -966 -204 -1378 -511 -431 -322 -766 -806 -917
-1324 -71 -244 -99 -448 -99 -719 0 -271 28 -475 99 -719 256 -881 996 -1577
1886 -1775 383 -85 833 -81 1190 9 455 116 858 344 1189 675 393 393 640 885
727 1450 24 156 24 524 -1 695 -80 558 -311 1038 -689 1431 -410 427 -916 685
-1507 769 -104 15 -414 27 -500 19z m-710 -1543 l0 -510 63 28 c96 44 200 63
316 59 l99 -3 17 58 c45 151 158 331 287 459 170 167 367 273 603 323 109 24
322 24 438 1 759 -148 1173 -965 843 -1659 -138 -288 -399 -516 -701 -610
-172 -53 -147 -52 -960 -52 -858 0 -811 -4 -982 80 -68 34 -112 64 -172 121
-140 132 -213 280 -234 474 l-11 106 -60 34 c-85 50 -198 160 -260 254 -94
141 -133 259 -143 428 -19 331 139 628 424 797 107 63 280 114 406 120 l27 1
0 -509z m760 -2421 l0 -240 -150 0 -150 0 0 240 0 240 150 0 150 0 0 -240z
m1160 0 l0 -240 -150 0 -150 0 0 240 0 240 150 0 150 0 0 -240z m-570 -380 l0
-240 -150 0 -150 0 0 240 0 240 150 0 150 0 0 -240z"/>
</g>
</svg>
